<?xml version="1.0" standalone="no"?>
<!DOCTYPE svg PUBLIC "-//W3C//DTD SVG 20010904//EN"
 "http://www.w3.org/TR/2001/REC-SVG-20010904/DTD/svg10.dtd">
<svg version="1.0" xmlns="http://www.w3.org/2000/svg"
 width="298.000000pt" height="298.000000pt" viewBox="0 0 298.000000 298.000000"
 preserveAspectRatio="xMidYMid meet">
<metadata>
Created by potrace 1.14, written by Peter Selinger 2001-2017
</metadata>
<g transform="translate(0.000000,298.000000) scale(0.100000,-0.100000)"
fill="#000000" stroke="none">
<path d="M363 1898 c3 -1081 3 -1083 25 -1166 49 -185 138 -338 269 -463 312
-298 770 -351 1145 -134 l78 45 375 0 375 0 0 95 0 95 -280 0 -279 0 38 55
c21 30 44 68 51 85 l12 30 229 0 229 0 0 90 0 90 -193 0 -194 0 15 68 c19 93
11 300 -17 407 -71 270 -259 498 -511 619 -151 73 -227 89 -410 90 -163 1
-250 -15 -364 -64 -32 -13 -46 -16 -46 -7 0 7 -1 267 -1 580 l0 567 -94 0 -95
0 0 -637 0 -637 -85 -87 -85 -86 0 723 0 724 -95 0 -96 0 4 -1082z m1047 -729
c60 -27 88 -54 116 -114 95 -201 -118 -407 -316 -305 -78 40 -123 116 -123
205 0 169 172 283 323 214z"/>
</g>
</svg>
